# xmcd
#
# Track frame offsets: 
#        150
#        11150
#        24990
#        37067
#        52957
#        64642
#        80317
#        94527
#        115080
#        130525
#        146475
#        168220
#
# Disc length: 2327 seconds
#
# Revision: 3
# Processed by: cddbd v1.5.2PL0 Copyright (c) Steve Scherf et al.
# Submitted via: ExactAudioCopy v0.99pb4
#
DISCID=8b09150c
DTITLE=Rosie Flores - Dance Hall Dreams
DYEAR=1900
DGENRE=Country
TTITLE0=Little Bit More
TTITLE1=We'll Survive
TTITLE2=Tremolo
TTITLE3=Who's Gonna Fix It Now
TTITLE4=Funnel Of Love
TTITLE5=From Where I Stand
TTITLE6=Bring It On
TTITLE7=The Man Downstairs
TTITLE8='59 Tweedle Dee
TTITLE9=This Ol' Honky Tonk
TTITLE10=It Came From Memphis
TTITLE11=Dance Hall Dreams
EXTD=
EXTT0=
EXTT1=
EXTT2=
EXTT3=
EXTT4=
EXTT5=
EXTT6=
EXTT7=
EXTT8=
EXTT9=
EXTT10=
EXTT11=
PLAYORDER=
